<?xml version="1.0" encoding="UTF-8"?>
<svg id="Layer_3" data-name="Layer 3" xmlns="http://www.w3.org/2000/svg" viewBox="0 0 399.86 399.86">
  <defs>
    <style>
      .cls-1 {
        fill: #fff16e;
      }

      .cls-2 {
        fill: #daeaea;
      }

      .cls-3 {
        fill: #464444;
      }
    </style>
  </defs>
  <g>
    <path class="cls-2" d="M35.22,.25H364.64c19.3,0,34.97,15.67,34.97,34.97V364.64c0,19.3-15.67,34.97-34.97,34.97H35.22c-19.3,0-34.97-15.67-34.97-34.97V35.22C.25,15.92,15.92,.25,35.22,.25Z"/>
    <path class="cls-3" d="M364.64,.5c19.14,0,34.72,15.57,34.72,34.72V364.64c0,19.14-15.57,34.72-34.72,34.72H35.22c-19.14,0-34.72-15.57-34.72-34.72V35.22C.5,16.07,16.07,.5,35.22,.5H364.64m0-.5H35.22C15.77,0,0,15.77,0,35.22V364.64c0,19.45,15.77,35.22,35.22,35.22H364.64c19.45,0,35.22-15.77,35.22-35.22V35.22c0-19.45-15.77-35.22-35.22-35.22h0Z"/>
  </g>
  <rect class="cls-1" x="57.8" y="57.46" width="281.28" height="281.28" transform="translate(-42.73 55.06) rotate(-14.28)"/>
</svg>