<?xml version="1.0" encoding="UTF-8"?>
<svg id="Layer_1" data-name="Layer 1" xmlns="http://www.w3.org/2000/svg" viewBox="0 0 400 400">
  <defs>
    <style>
      .cls-1 {
        fill: #b9d940;
      }

      .cls-2 {
        fill: #daeaea;
      }

      .cls-3 {
        fill: #464444;
      }
    </style>
  </defs>
  <g>
    <rect class="cls-1" x=".25" y=".25" width="399.5" height="399.5" rx="34.97" ry="34.97"/>
    <path class="cls-3" d="M364.78,.5c19.14,0,34.72,15.57,34.72,34.72V364.78c0,19.14-15.57,34.72-34.72,34.72H35.22c-19.14,0-34.72-15.57-34.72-34.72V35.22C.5,16.07,16.07,.5,35.22,.5H364.78m0-.5H35.22C15.77,0,0,15.77,0,35.22V364.78C0,384.23,15.77,400,35.22,400H364.78c19.45,0,35.22-15.77,35.22-35.22V35.22c0-19.45-15.77-35.22-35.22-35.22h0Z"/>
  </g>
  <polygon class="cls-2" points="202.71 46.96 35.64 331.06 369.78 331.06 202.71 46.96"/>
</svg>