<?xml version="1.0" encoding="UTF-8"?>
<svg id="Layer_4" data-name="Layer 4" xmlns="http://www.w3.org/2000/svg" viewBox="0 0 400.5 400.5">
  <defs>
    <style>
      .cls-1 {
        fill: #e4e651;
      }

      .cls-2 {
        fill: #b9d940;
      }

      .cls-3 {
        fill: #464444;
      }
    </style>
  </defs>
  <g>
    <rect class="cls-2" x=".36" y=".5" width="399.78" height="399.5" rx="34.97" ry="34.97"/>
    <path class="cls-3" d="M365.17,.75c19.14,0,34.72,15.57,34.72,34.72V365.03c0,19.14-15.57,34.72-34.72,34.72H35.32c-19.14,0-34.72-15.57-34.72-34.72V35.47C.61,16.32,16.18,.75,35.32,.75H365.17m0-.5H35.32C15.87,.25,.11,16.02,.11,35.47V365.03c0,19.45,15.77,35.22,35.22,35.22H365.17c19.45,0,35.22-15.77,35.22-35.22V35.47c0-19.45-15.77-35.22-35.22-35.22h0Z"/>
  </g>
  <polygon class="cls-1" points="195.77 16.76 237.29 100.01 325.52 70.5 296.01 158.73 379.26 200.25 296.01 241.77 325.52 330 237.29 300.49 195.77 383.74 154.25 300.49 66.03 330 95.54 241.77 12.28 200.25 95.54 158.73 66.03 70.5 154.25 100.01 195.77 16.76"/>
</svg>