<?xml version="1.0" encoding="UTF-8"?>
<svg id="Layer_5" data-name="Layer 5" xmlns="http://www.w3.org/2000/svg" viewBox="0 0 400.5 400.5">
  <defs>
    <style>
      .cls-1 {
        fill: #f0abc7;
      }

      .cls-2 {
        fill: #daeaea;
      }

      .cls-3 {
        fill: #464444;
      }
    </style>
  </defs>
  <g>
    <rect class="cls-2" x=".36" y=".5" width="399.5" height="399.5" rx="34.97" ry="34.97"/>
    <path class="cls-3" d="M364.89,.75c19.14,0,34.72,15.57,34.72,34.72V365.03c0,19.14-15.57,34.72-34.72,34.72H35.32c-19.14,0-34.72-15.57-34.72-34.72V35.47C.61,16.32,16.18,.75,35.32,.75H364.89m0-.5H35.32C15.87,.25,.11,16.02,.11,35.47V365.03c0,19.45,15.77,35.22,35.22,35.22H364.89c19.45,0,35.22-15.77,35.22-35.22V35.47c0-19.45-15.77-35.22-35.22-35.22h0Z"/>
  </g>
  <polygon class="cls-1" points="291.61 41.79 109.59 41.79 18.58 199.43 109.59 357.06 291.61 357.06 382.63 199.43 291.61 41.79"/>
</svg>